<?xml version="1.0" standalone="no"?><!DOCTYPE svg PUBLIC "-//W3C//DTD SVG 1.1//EN" "http://www.w3.org/Graphics/SVG/1.1/DTD/svg11.dtd"><svg class="icon" height="512" viewBox="0 0 1024 1024" version="1.1" xmlns="http://www.w3.org/2000/svg"><path d="M676.773552 909.990378 125.038678 909.990378c-5.699019 0-10.321193-4.622174-10.321193-10.321193L114.717484 123.563607c0-5.699019 4.622174-10.321193 10.321193-10.321193l108.007848 0c5.699019 0 10.321193 4.622174 10.321193 10.321193 0 5.700739-4.622174 10.321193-10.321193 10.321193L135.359871 133.8848l0 755.46319 541.413681 0c5.700739 0 10.321193 4.620454 10.321193 10.321193C687.094745 905.368203 682.472571 909.990378 676.773552 909.990378zM897.743422 909.990378l-105.286494 0c-5.699019 0-10.321193-4.622174-10.321193-10.321193 0-5.700739 4.622174-10.321193 10.321193-10.321193l94.9653 0L887.422228 133.8848 354.750598 133.8848c-5.700739 0-10.321193-4.620454-10.321193-10.321193 0-5.699019 4.620454-10.321193 10.321193-10.321193l542.992824 0c5.700739 0 10.321193 4.622174 10.321193 10.321193l0 776.105577C908.064615 905.368203 903.444161 909.990378 897.743422 909.990378zM240.458863 244.75678 127.242252 244.75678c-5.699019 0-10.321193-4.622174-10.321193-10.321193s4.622174-10.321193 10.321193-10.321193l113.21489 0c5.699019 0 10.321193 4.622174 10.321193 10.321193S246.157882 244.75678 240.458863 244.75678zM344.47757 466.500739 127.242252 466.500739c-5.700739 0-10.321193-4.622174-10.321193-10.321193s4.620454-10.321193 10.321193-10.321193l217.233598 0c5.700739 0 10.321193 4.622174 10.321193 10.321193S350.178309 466.500739 344.47757 466.500739zM894.669426 466.500739l-107.261282 0c-5.699019 0-10.321193-4.622174-10.321193-10.321193s4.622174-10.321193 10.321193-10.321193l107.261282 0c5.699019 0 10.321193 4.622174 10.321193 10.321193S900.370165 466.500739 894.669426 466.500739zM626.24615 909.990378c-5.699019 0-10.321193-4.622174-10.321193-10.321193l0-108.831824c0-5.699019 4.622174-10.321193 10.321193-10.321193s10.321193 4.622174 10.321193 10.321193l0 108.831824C636.567343 905.368203 631.946889 909.990378 626.24615 909.990378zM786.023384 355.62876c-5.699019 0-10.321193-4.622174-10.321193-10.321193L775.702191 126.43978c0-5.699019 4.622174-10.321193 10.321193-10.321193s10.321193 4.622174 10.321193 10.321193l0 218.867787C796.344577 351.008305 791.724123 355.62876 786.023384 355.62876zM788.053219 799.118398 454.974546 799.118398c-5.699019 0-10.321193-4.622174-10.321193-10.321193s4.622174-10.321193 10.321193-10.321193l322.759199 0L777.733745 562.972934c0-5.700739 4.620454-10.321193 10.321193-10.321193 5.699019 0 10.321193 4.620454 10.321193 10.321193L798.376132 788.797205C798.374412 794.496224 793.753958 799.118398 788.053219 799.118398zM565.249617 577.374439 344.697756 577.374439c-5.700739 0-10.321193-4.622174-10.321193-10.321193s4.620454-10.321193 10.321193-10.321193l210.232388 0L554.930144 345.307566c0-5.699019 4.622174-10.321193 10.321193-10.321193 5.700739 0 10.321193 4.622174 10.321193 10.321193l0 221.743959C575.57081 572.752264 570.950356 577.374439 565.249617 577.374439zM454.864454 244.75678c-5.699019 0-10.321193-4.622174-10.321193-10.321193L444.54326 124.946647c0-5.699019 4.622174-10.321193 10.321193-10.321193s10.321193 4.622174 10.321193 10.321193l0 109.48894C465.185647 240.136326 460.563473 244.75678 454.864454 244.75678zM675.6365 577.374439l-117.176509 0c-5.700739 0-10.321193-4.622174-10.321193-10.321193 0-5.700739 4.620454-10.321193 10.321193-10.321193l106.855315 0L665.315307 244.75678 354.798764 244.75678l0 100.550786c0 5.699019-4.622174 10.321193-10.321193 10.321193s-10.321193-4.622174-10.321193-10.321193l0-110.87198c0-5.699019 4.622174-10.321193 10.321193-10.321193l331.16065 0c5.699019 0 10.321193 4.622174 10.321193 10.321193l0 332.615939C685.957694 572.752264 681.33724 577.374439 675.6365 577.374439zM344.47757 799.118398 227.301062 799.118398c-5.699019 0-10.321193-4.622174-10.321193-10.321193s4.622174-10.321193 10.321193-10.321193l106.855315 0 0-100.550786c0-5.699019 4.622174-10.321193 10.321193-10.321193s10.321193 4.622174 10.321193 10.321193l0 110.87198C354.798764 794.496224 350.176589 799.118398 344.47757 799.118398zM454.864454 466.500739c-5.700739 0-10.321193-4.622174-10.321193-10.321193l0-100.550786L234.090687 355.62876c-5.699019 0-10.321193-4.622174-10.321193-10.321193s4.622174-10.321193 10.321193-10.321193l220.772047 0c5.699019 0 10.321193 4.622174 10.321193 10.321193l0 110.87198C465.185647 461.880285 460.563473 466.500739 454.864454 466.500739zM626.24615 688.246418 234.090687 688.246418c-5.699019 0-10.321193-4.622174-10.321193-10.321193L223.769493 456.179546c0-5.699019 4.622174-10.321193 10.321193-10.321193s10.321193 4.622174 10.321193 10.321193l0 211.422766 381.83427 0c5.699019 0 10.321193 4.622174 10.321193 10.321193S631.946889 688.246418 626.24615 688.246418zM734.716732 952.948905m-9.751808 0a5.669 5.669 0 1 0 19.503615 0 5.669 5.669 0 1 0-19.503615 0ZM291.151404 109.456256m-4.876764 0a2.835 2.835 0 1 0 9.753528 0 2.835 2.835 0 1 0-9.753528 0ZM291.151404 87.681978m-4.876764 0a2.835 2.835 0 1 0 9.753528 0 2.835 2.835 0 1 0-9.753528 0ZM291.151404 65.909421m-4.876764 0a2.835 2.835 0 1 0 9.753528 0 2.835 2.835 0 1 0-9.753528 0ZM306.022524 54.891547c-0.880742 0-1.759763-0.335439-2.432361-1.008037l-12.437038-12.437038-12.437038 12.437038c-1.341755 1.343475-3.522967 1.343475-4.864722 0-1.343475-1.343475-1.343475-3.521247 0-4.864722l14.871119-14.869399c1.343475-1.343475 3.521247-1.343475 4.864722 0l14.871119 14.869399c1.343475 1.343475 1.343475 3.521247 0 4.864722C307.784008 54.554388 306.901545 54.891547 306.022524 54.891547z" /></svg>